<svg xmlns="http://www.w3.org/2000/svg" version="1.1" xmlns:xlink="http://www.w3.org/1999/xlink" xmlns:svgjs="http://svgjs.dev/svgjs" width="1920" height="1080" preserveAspectRatio="none" viewBox="0 0 1920 1080"><g mask="url(&quot;#SvgjsMask1051&quot;)" fill="none"><rect width="1920" height="1080" x="0" y="0" fill="#0e2a47"></rect><path d="M113 1080L1193 0L1308.5 0L228.5 1080z" fill="url(&quot;#SvgjsLinearGradient1052&quot;)"></path><path d="M705.6 1080L1785.6 0L1976.1 0L896.1 1080z" fill="url(&quot;#SvgjsLinearGradient1052&quot;)"></path><path d="M1809 1080L729 0L562.5 0L1642.5 1080z" fill="url(&quot;#SvgjsLinearGradient1053&quot;)"></path><path d="M1255.4 1080L175.4000000000001 0L-366.0999999999999 0L713.9000000000001 1080z" fill="url(&quot;#SvgjsLinearGradient1053&quot;)"></path><path d="M1211.5322785447838 1080L1920 371.5322785447838L1920 1080z" fill="url(&quot;#SvgjsLinearGradient1052&quot;)"></path><path d="M0 1080L708.4677214552162 1080L 0 371.5322785447838z" fill="url(&quot;#SvgjsLinearGradient1053&quot;)"></path></g><defs><mask id="SvgjsMask1051"><rect width="1920" height="1080" fill="#ffffff"></rect></mask><linearGradient x1="0%" y1="100%" x2="100%" y2="0%" id="SvgjsLinearGradient1052"><stop stop-color="rgba(15, 70, 185, 0.2)" offset="0"></stop><stop stop-opacity="0" stop-color="rgba(15, 70, 185, 0.2)" offset="0.66"></stop></linearGradient><linearGradient x1="100%" y1="100%" x2="0%" y2="0%" id="SvgjsLinearGradient1053"><stop stop-color="rgba(15, 70, 185, 0.2)" offset="0"></stop><stop stop-opacity="0" stop-color="rgba(15, 70, 185, 0.2)" offset="0.66"></stop></linearGradient></defs></svg>