<svg xmlns="http://www.w3.org/2000/svg" version="1.1" xmlns:xlink="http://www.w3.org/1999/xlink" xmlns:svgjs="http://svgjs.dev/svgjs" width="1440" height="250" preserveAspectRatio="none" viewBox="0 0 1440 250"><g mask="url(&quot;#SvgjsMask1029&quot;)" fill="none"><rect width="1440" height="250" x="0" y="0" fill="#0e2a47"></rect><path d="M33 250L283 0L403 0L153 250z" fill="url(&quot;#SvgjsLinearGradient1030&quot;)"></path><path d="M263.6 250L513.6 0L639.6 0L389.6 250z" fill="url(&quot;#SvgjsLinearGradient1030&quot;)"></path><path d="M491.20000000000005 250L741.2 0L945.2 0L695.2 250z" fill="url(&quot;#SvgjsLinearGradient1030&quot;)"></path><path d="M757.8000000000001 250L1007.8000000000001 0L1063.3000000000002 0L813.3000000000001 250z" fill="url(&quot;#SvgjsLinearGradient1030&quot;)"></path><path d="M1409 250L1159 0L902.5 0L1152.5 250z" fill="url(&quot;#SvgjsLinearGradient1031&quot;)"></path><path d="M1166.4 250L916.4000000000001 0L712.4000000000001 0L962.4000000000001 250z" fill="url(&quot;#SvgjsLinearGradient1031&quot;)"></path><path d="M938.8 250L688.8 0L474.29999999999995 0L724.3 250z" fill="url(&quot;#SvgjsLinearGradient1031&quot;)"></path><path d="M694.1999999999999 250L444.19999999999993 0L184.69999999999993 0L434.69999999999993 250z" fill="url(&quot;#SvgjsLinearGradient1031&quot;)"></path><path d="M1244.4987536683427 250L1440 54.498753668342715L1440 250z" fill="url(&quot;#SvgjsLinearGradient1030&quot;)"></path><path d="M0 250L195.50124633165728 250L 0 54.498753668342715z" fill="url(&quot;#SvgjsLinearGradient1031&quot;)"></path></g><defs><mask id="SvgjsMask1029"><rect width="1440" height="250" fill="#ffffff"></rect></mask><linearGradient x1="0%" y1="100%" x2="100%" y2="0%" id="SvgjsLinearGradient1030"><stop stop-color="rgba(15, 70, 185, 0.2)" offset="0"></stop><stop stop-opacity="0" stop-color="rgba(15, 70, 185, 0.2)" offset="0.66"></stop></linearGradient><linearGradient x1="100%" y1="100%" x2="0%" y2="0%" id="SvgjsLinearGradient1031"><stop stop-color="rgba(15, 70, 185, 0.2)" offset="0"></stop><stop stop-opacity="0" stop-color="rgba(15, 70, 185, 0.2)" offset="0.66"></stop></linearGradient></defs></svg>